
<svg xmlns="http://www.w3.org/2000/svg" xmlns:xlink="http://www.w3.org/1999/xlink"><defs><symbol viewBox="0 0 19.4 16.5" id="arrow"><g id="arrow_Group_14" transform="rotate(180 9.708 7.798)"><path class="st0" d="M11.2-.9l8.3 8.2-8.3 8.3-1.8-1.8 6.5-6.5L9.4.9z" id="arrow_Path_205"/><path class="st0" d="M0 6.2h17.6v2.5H0z" id="arrow_Line_5"/></g></symbol><symbol viewBox="0 0 25 9" id="arrow-thick"><path class="st0" d="M0 3h20v3H0z"/><path class="st0" d="M25 4.5L17 9V0l8 4.5z"/></symbol><symbol viewBox="0 0 9 8" id="arrow-triangle"><path d="M4.5 8L0 0h9z" data-name="Polygon 12"/></symbol><symbol viewBox="0 0 10.828 6.828" id="carret-sharp"><path d="M0 4l4-4 4 4" transform="rotate(180 4.707 2.707)" fill="none" stroke-linecap="square" stroke-width="2"/></symbol><symbol viewBox="0 0 22.858 14.604" id="email"><path id="email_Path_528" data-name="Path 528" d="M268.526 528.564H248.28a1.306 1.306 0 00-1.306 1.306v11.992a1.306 1.306 0 001.306 1.306h20.246a1.306 1.306 0 001.306-1.306V529.87a1.306 1.306 0 00-1.306-1.306zM248.7 541.642l-.54-.431 4.4-5.518.54.431zm-.1-11.135l.414-.554 9.239 6.914 9.242-7.167.424.546-9.658 7.49zm18.955 11.135l-4.4-5.518.54-.431 4.4 5.518z" transform="translate(-246.974 -528.564)"/></symbol><symbol viewBox="0 0 265.3 193.2" style="enable-background:new 0 0 265.3 193.2;" id="emakina-logo"><style type="text/css">
	.st0{fill:#FFFFFF;}
</style>
<g>
	<g>
		<rect x="144.1" y="45.6" class="st0" width="7.6" height="38.1"/>
		<rect x="128.9" y="45.6" class="st0" width="7.6" height="38.1"/>
		<rect x="113.7" y="45.6" class="st0" width="7.6" height="38.1"/>
		<rect x="113.6" y="0" class="st0" width="38.1" height="7.6"/>
		<rect x="113.6" y="15.2" class="st0" width="38.1" height="7.6"/>
		<rect x="113.7" y="30.5" class="st0" width="38.1" height="7.6"/>
		<g>
			<polygon class="st0" points="37.9,120.9 43.6,120.9 58,138.3 72.3,120.9 78,120.9 78,150.2 71.4,150.2 71.4,130 58.3,146.7 
				56.9,146.7 43.6,130.5 43.6,150.2 37.9,150.2 			"/>
			<path class="st0" d="M81.7,150.2h7.2l3.7-6.4H112l3.7,6.4h8L106,120.9h-6.9L81.7,150.2z M95.6,138.4l6.6-12.2l6.9,12.2H95.6z"/>
			<polygon class="st0" points="127.3,120.9 134.6,120.9 134.6,132.7 151.7,120.9 162,120.9 141.8,134.5 164.3,150.2 153,150.2 
				134.6,137 134.6,150.2 127.3,150.2 			"/>
			<rect x="168.3" y="120.9" class="st0" width="7.1" height="29.3"/>
			<polygon class="st0" points="183.7,120.9 188.7,120.9 213.6,140.4 213.6,120.9 220,120.9 220,150.2 215.1,150.2 190.2,130.4 
				190.2,150.2 183.7,150.2 			"/>
			<path class="st0" d="M223.4,150.2h7.1l3.7-6.4h19.4l3.7,6.4h8l-17.7-29.3h-6.9L223.4,150.2z M237.3,138.4l6.6-12.2l6.9,12.2
				H237.3z"/>
			<polygon class="st0" points="0,120.9 0,150.2 32.4,150.2 32.4,144.7 30,144.7 7.2,144.7 7.2,137.5 28.2,137.5 28.2,132.5 
				7.2,132.5 7.2,126.1 32.4,126.1 32.4,120.9 			"/>
		</g>
	</g>
	<g>
		<path class="st0" d="M30.4,188.7H25l-1.5,4.3h-1.4l4.9-13.4h1.4l4.9,13.4h-1.4L30.4,188.7z M27.7,181c0,0-0.3,1.1-0.5,1.7
			l-1.8,4.8H30l-1.7-4.8C28,182.1,27.7,181,27.7,181L27.7,181z"/>
		<path class="st0" d="M38.5,179.6h1.3l6.8,9.6c0.5,0.7,1.1,1.8,1.1,1.8l0,0c0,0-0.1-1.1-0.1-1.8v-9.6h1.3V193h-1.3l-6.8-9.6
			c-0.5-0.7-1.1-1.8-1.1-1.8l0,0c0,0,0.1,1.1,0.1,1.8v9.6h-1.3V179.6z"/>
		<path class="st0" d="M64,179.6h7.5v1.2h-6.2v4.9h5.1v1.2h-5.1v5h6.6v1.2H64L64,179.6L64,179.6z"/>
		<path class="st0" d="M77.9,179.6h4.6c2.4,0,4.1,1.6,4.1,4c0,2.5-1.7,4.1-4.1,4.1h-3.3v5.2h-1.3V179.6z M82.3,186.5
			c1.8,0,2.9-1.1,2.9-2.9s-1.2-2.8-2.9-2.8h-3.2v5.8h3.2V186.5z"/>
		<path class="st0" d="M98.4,188.7H93l-1.5,4.3h-1.4l4.9-13.4h1.4l4.9,13.4h-1.4L98.4,188.7z M95.7,181c0,0-0.3,1.1-0.5,1.7
			l-1.8,4.8H98l-1.7-4.8C96,182.1,95.7,181,95.7,181L95.7,181z"/>
		<path class="st0" d="M107.2,179.6h1.4l3.5,7.8c0.3,0.7,0.6,1.6,0.6,1.6l0,0c0,0,0.4-1,0.7-1.6l3.5-7.8h1.3l1.1,13.4H118l-0.7-9.3
			c-0.1-0.7,0-1.9,0-1.9l0,0c0,0-0.4,1.2-0.7,1.9l-3.1,6.9h-1.2l-3.1-6.9c-0.3-0.7-0.7-1.9-0.7-1.9l0,0c0,0,0,1.2,0,1.9l-0.7,9.3
			h-1.3L107.2,179.6z"/>
		<path class="st0" d="M139.7,179.4c3.2,0,4.8,1.7,4.8,1.7l-0.7,1c0,0-1.6-1.5-4.1-1.5c-3.1,0-5.4,2.4-5.4,5.6s2.2,5.8,5.4,5.8
			c2.7,0,4.3-1.8,4.3-1.8l0.8,0.9c0,0-1.8,2.1-5.1,2.1c-4,0-6.8-3.1-6.8-7C133,182.3,135.9,179.4,139.7,179.4z"/>
		<path class="st0" d="M156.6,179.4c3.8,0,6.8,3,6.8,6.8c0,3.9-3,7-6.8,7c-3.8,0-6.8-3.1-6.8-7S152.8,179.4,156.6,179.4z
			 M156.6,191.9c3,0,5.4-2.5,5.4-5.8c0-3.2-2.4-5.6-5.4-5.6s-5.4,2.4-5.4,5.6C151.1,189.4,153.6,191.9,156.6,191.9z"/>
		<path class="st0" d="M170,179.6h1.4l3.5,7.8c0.3,0.7,0.6,1.6,0.6,1.6l0,0c0,0,0.4-1,0.7-1.6l3.5-7.8h1.3l1.1,13.4h-1.3l-0.7-9.3
			c-0.1-0.7,0-1.9,0-1.9l0,0c0,0-0.4,1.2-0.7,1.9l-3.1,6.9h-1.2l-3.1-6.9c-0.3-0.7-0.7-1.9-0.7-1.9l0,0c0,0,0,1.2,0,1.9l-0.7,9.3
			h-1.3L170,179.6z"/>
		<path class="st0" d="M188.6,179.6h4.6c2.4,0,4.1,1.6,4.1,4c0,2.5-1.7,4.1-4.1,4.1h-3.3v5.2h-1.3V179.6z M193.1,186.5
			c1.8,0,2.9-1.1,2.9-2.9s-1.2-2.8-2.9-2.8h-3.2v5.8h3.2V186.5z"/>
		<path class="st0" d="M209.1,188.7h-5.4l-1.5,4.3h-1.4l4.9-13.4h1.4L212,193h-1.4L209.1,188.7z M206.4,181c0,0-0.3,1.1-0.5,1.7
			l-1.8,4.8h4.6l-1.7-4.8C206.7,182.1,206.4,181,206.4,181L206.4,181z"/>
		<path class="st0" d="M217.3,179.6h1.3l6.8,9.6c0.5,0.7,1.1,1.8,1.1,1.8l0,0c0,0-0.1-1.1-0.1-1.8v-9.6h1.3V193h-1.3l-6.8-9.6
			c-0.5-0.7-1.1-1.8-1.1-1.8l0,0c0,0,0.1,1.1,0.1,1.8v9.6h-1.3V179.6z"/>
		<path class="st0" d="M237.5,187.2l-4.5-7.6h1.5l2.8,4.8c0.4,0.7,0.8,1.6,0.8,1.6l0,0c0,0,0.4-0.9,0.8-1.6l2.8-4.8h1.5l-4.5,7.6
			v5.7h-1.3v-5.7H237.5z"/>
	</g>
</g>
</symbol><symbol viewBox="0 0 20.005 45" id="emakina-logo-small"><path id="emakina-logo-small_Union_1" data-name="Union 1" d="M103.483-86.514v-20.461h4v20.461zm-8 0v-20.461h4v20.461zm-8 0v-20.461h4v20.461zm0-24.537v-4.093h20.005v4.093zm0-8.185v-4.093h20.005v4.093zm0-8.186v-4.093h20.005v4.093z" transform="translate(-87.48 131.514)"/></symbol><symbol viewBox="0 0 77.873 27.402" id="epam-logo-white"><path data-name="Path 1" d="M14.7 9.318h4.308V4.746a1.692 1.692 0 00-1.913-1.915h-.479a1.692 1.692 0 00-1.915 1.915zm-.009 2.918l.009 5.029a1.692 1.692 0 001.915 1.915h.558a1.692 1.692 0 001.913-1.915v-2.472h2.95v2.352c0 3.23-1.634 4.865-4.864 4.865h-.638c-3.23 0-4.865-1.636-4.865-4.486V5.243C11.669 1.636 13.305 0 16.534 0h.638c3.23 0 4.864 1.636 4.864 4.865l-.009 7.371z" fill="#fff"/><path data-name="Path 2" d="M27.036 18.023a4.283 4.283 0 002.791 1.115 1.545 1.545 0 001.755-1.754V4.626a1.546 1.546 0 00-1.755-1.755 4.285 4.285 0 00-2.791 1.117zM24.004.239h3.03v1.4A5.071 5.071 0 0130.742.003c2.591 0 3.868 1.715 3.868 4.267v13.477c0 2.552-1.277 4.267-3.868 4.267a5.2 5.2 0 01-3.708-1.556v6.947h-3.03z" fill="#fff"/><path data-name="Path 3" d="M43.699 18.143v-7.1l-2.751 1.042a2 2 0 00-1.475 2.227v3.27c0 1.037.519 1.556 1.476 1.556a4.767 4.767 0 002.751-1m-7.257-3.868c0-2.671.878-3.748 3.19-4.546L43.7 8.329V4.74a1.721 1.721 0 00-1.915-1.955h-.492a1.721 1.721 0 00-1.915 1.955v3.05h-2.949V4.86c0-3.23 1.636-4.865 4.865-4.865h.572c3.23 0 4.865 1.636 4.865 4.865v16.906h-3.03v-1.354a5.123 5.123 0 01-3.708 1.6c-2.432 0-3.549-1.4-3.549-3.788z" fill="#fff"/><path data-name="Path 4" d="M58.985 21.771h-3.03V4.426c0-1.077-.519-1.554-1.436-1.554a4.85 4.85 0 00-2.791 1.076v17.824h-3.026V.239h3.03v1.4A5.213 5.213 0 0155.44.003a3.229 3.229 0 013.15 1.755A6.188 6.188 0 0162.697.003c2.352 0 3.549 1.436 3.549 3.788v17.983h-3.03V4.426c0-1.077-.519-1.554-1.436-1.554a4.846 4.846 0 00-2.791 1.076z" fill="#fff"/><path data-name="Path 5" d="M7.786 2.223v3.96l-5.1 4.859 5.1 4.773v4.046L0 12.543V9.629z" fill="#00abcd"/><path data-name="Path 6" d="M77.873 9.629v2.914l-7.786 7.318v-4.046l5.1-4.773-5.1-4.859v-3.96z" fill="#00abcd"/></symbol><symbol viewBox="0 0 7.554 17.003" id="facebook"><path fill-rule="evenodd" d="M7.537.005v2.763s-1.911-.2-2.388.577a8.339 8.339 0 00-.13 2.57h2.534c-.214 1.047-.367 1.756-.525 2.665H5.005v8.424H1.494V8.613H0v-2.7h1.473c.075-1.974.1-3.928 1.024-4.923C3.534-.132 4.521.005 7.537.005z" data-name="Path 703"/></symbol><symbol viewBox="0 0 9 12.5" id="filter"><g id="filter_Group_28654" data-name="Group 28654" transform="translate(-123 -786.5)"><path id="filter_Rectangle_27719" data-name="Rectangle 27719" transform="rotate(90 -330.5 459.5)" fill="#fff" d="M0 0h9v3H0z"/><g id="filter_Group_28653" data-name="Group 28653" transform="rotate(90 750.75 576.25)"><g id="filter_Group_73" data-name="Group 73" transform="translate(-6)"><path id="filter_Polygon_1" data-name="Polygon 1" d="M4.5 0L9 8H0z" transform="rotate(90 -110 1085)" fill="#fff"/></g></g></g></symbol><symbol viewBox="0 0 16.18 15.161" id="linkedin"><g id="linkedin_Group_26829" data-name="Group 26829" transform="translate(.891 -31.265)"><path id="linkedin_Path_526" data-name="Path 526" d="M12.055 46.414v-6.127a1.816 1.816 0 00-1.767-1.639 1.925 1.925 0 00-1.874 1.558v6.207H5.148L5.2 36.294h3.16l-.026 1.272a3.174 3.174 0 013.141-1.666c2.481 0 3.605 1.426 3.814 4.092v6.418zM1.142 34.856a1.809 1.809 0 110-3.591 1.809 1.809 0 110 3.591zm2.016 11.57H-.857V36.32l4.015-.026z"/></g></symbol><symbol viewBox="0 0 19.456 19.456" id="linkedin-square"><path data-name="Icon awesome-linkedin" d="M18.066 0H1.385A1.4 1.4 0 000 1.403V18.05a1.4 1.4 0 001.385 1.4h16.681a1.4 1.4 0 001.39-1.4V1.403A1.4 1.4 0 0018.066 0zM5.88 16.676H3V7.391h2.885v9.285zM4.438 6.123A1.672 1.672 0 116.11 4.45a1.673 1.673 0 01-1.672 1.673zm12.251 10.553h-2.883V12.16c0-1.077-.022-2.462-1.5-2.462-1.5 0-1.733 1.173-1.733 2.384v4.595H7.691V7.391h2.766V8.66h.043a3.037 3.037 0 012.732-1.5c2.918 0 3.461 1.924 3.461 4.425z"/></symbol><symbol viewBox="0 0 79.6 82.7" id="magnifier-simple"><path d="M79.6 75.3L63.3 60.2c5.7-6.4 9.1-14.8 9.1-24C72.4 16.2 56.1 0 36.2 0S0 16.2 0 36.2s16.3 36.2 36.2 36.2c7.1 0 13.8-2.1 19.4-5.7l17.2 16 6.8-7.4zM10 36.2C10 21.7 21.8 10 36.2 10c14.5 0 26.2 11.8 26.2 26.2 0 14.5-11.8 26.2-26.2 26.2C21.8 62.4 10 50.6 10 36.2z"/></symbol><symbol viewBox="0 0 7.265 9.358" id="pin"><path id="pin_Path_10274" data-name="Path 10274" d="M15.61 8.349a.465.465 0 01-.2-.181c-.776-1.1-1.557-2.192-2.328-3.293a2.945 2.945 0 01-.516-1.428A3.093 3.093 0 0114.381.3 3.02 3.02 0 0117.7.762a2.967 2.967 0 011.08 2 3.063 3.063 0 01-.571 2.2L15.955 8.14a.489.489 0 01-.213.2z" transform="translate(-12.041 .509)" stroke-width="1"/></symbol><symbol viewBox="0 0 7.265 9.358" id="pin-transparent"><path d="M3.569 8.858a.465.465 0 01-.2-.181c-.776-1.1-1.557-2.192-2.328-3.293a2.945 2.945 0 01-.516-1.428A3.093 3.093 0 012.34.809a3.02 3.02 0 013.319.462 2.967 2.967 0 011.08 2 3.063 3.063 0 01-.571 2.2L3.914 8.649a.489.489 0 01-.213.2z" data-name="Path 10264"/></symbol><symbol viewBox="0 0 12.7 16.7" id="play"><path class="st0" d="M12.7 8.4L0 16.7V0l12.7 8.4z"/></symbol><symbol viewBox="0 0 30 30" id="sound-off"><path fill="#fff" d="M23.44 22.87V8.55L11 7v10.71a3.39 3.39 0 00-.64-.06 3.13 3.13 0 103.12 3.25v-7.35l7.52.94v5.22a3.39 3.39 0 00-.64-.07 3.13 3.13 0 103.12 3.26zm-10-11.82V9.8l7.52.94V12z"/><path fill="#f47e46" d="M15.39 5.87l-1.77-1.76-2.65 2.65-2.65-2.65-1.77 1.76L9.2 8.53l-2.65 2.65 1.77 1.76 2.65-2.65 2.65 2.65 1.77-1.76-2.65-2.65 2.65-2.66z"/></symbol><symbol viewBox="0 0 30 30" id="sound-on"><path fill="#fff" d="M23.12 20.72V6.4L10.64 4.84v10.73a3.39 3.39 0 00-.64-.07 3.13 3.13 0 103.11 3.25v-7.34l7.52.94v5.22a2.73 2.73 0 00-.63-.07 3.13 3.13 0 103.11 3.25zm-10-11.82V7.66l7.52.94v1.24z"/></symbol><symbol viewBox="0 0 18.655 15.16" id="twitter"><path id="twitter_Path_527" data-name="Path 527" d="M22.229 12.121a7.615 7.615 0 01-2.2.6 3.834 3.834 0 001.683-2.118 7.661 7.661 0 01-2.43.929 3.831 3.831 0 00-6.521 3.491 10.867 10.867 0 01-7.889-4 3.832 3.832 0 001.185 5.11 3.816 3.816 0 01-1.734-.479v.048a3.83 3.83 0 003.07 3.753 3.848 3.848 0 01-1.008.134 3.792 3.792 0 01-.72-.069 3.831 3.831 0 003.575 2.662 7.723 7.723 0 01-5.666 1.585A10.885 10.885 0 0020.33 14.6q0-.249-.011-.5a7.752 7.752 0 001.91-1.979z" transform="translate(-3.574 -10.326)"/></symbol><style>.sprite-symbol-usage{display:none}.sprite-symbol-usage:target{display:inline}</style></defs><use id="arrow-usage" xlink:href="#arrow" class="sprite-symbol-usage"/><use id="arrow-thick-usage" xlink:href="#arrow-thick" class="sprite-symbol-usage"/><use id="arrow-triangle-usage" xlink:href="#arrow-triangle" class="sprite-symbol-usage"/><use id="carret-sharp-usage" xlink:href="#carret-sharp" class="sprite-symbol-usage"/><use id="email-usage" xlink:href="#email" class="sprite-symbol-usage"/><use id="emakina-logo-usage" xlink:href="#emakina-logo" class="sprite-symbol-usage"/><use id="emakina-logo-small-usage" xlink:href="#emakina-logo-small" class="sprite-symbol-usage"/><use id="epam-logo-white-usage" xlink:href="#epam-logo-white" class="sprite-symbol-usage"/><use id="facebook-usage" xlink:href="#facebook" class="sprite-symbol-usage"/><use id="filter-usage" xlink:href="#filter" class="sprite-symbol-usage"/><use id="linkedin-usage" xlink:href="#linkedin" class="sprite-symbol-usage"/><use id="linkedin-square-usage" xlink:href="#linkedin-square" class="sprite-symbol-usage"/><use id="magnifier-simple-usage" xlink:href="#magnifier-simple" class="sprite-symbol-usage"/><use id="pin-usage" xlink:href="#pin" class="sprite-symbol-usage"/><use id="pin-transparent-usage" xlink:href="#pin-transparent" class="sprite-symbol-usage"/><use id="play-usage" xlink:href="#play" class="sprite-symbol-usage"/><use id="sound-off-usage" xlink:href="#sound-off" class="sprite-symbol-usage"/><use id="sound-on-usage" xlink:href="#sound-on" class="sprite-symbol-usage"/><use id="twitter-usage" xlink:href="#twitter" class="sprite-symbol-usage"/></svg>